<svg xmlns="http://www.w3.org/2000/svg" viewBox="0 0 46 35" role="img" aria-label="BR" fill="currentColor">
  <path d="M4 8H15.5C18.5 8 20.5 9.5 20.5 12.5C20.5 14.5 19 16 17 16.5C19.5 17 21 19 21 22C21 25.5 18.5 27 15.5 27H4V8ZM9 12.5V15H15C16 15 16.5 14.5 16.5 13.5C16.5 12.5 16 12.5 15 12.5H9ZM9 19.5V22.5H15.5C16.5 22.5 17 22 17 21C17 20 16.5 19.5 15.5 19.5H9Z"/>
  <path d="M24 8H35.5C38.5 8 40.5 9.5 40.5 12.5C40.5 15.2 38.5 16.5 36 16.8L41.5 27H36L31 17.5H29V27H24V8ZM29 12.5V14.5H35C35.8 14.5 36.3 14 36.3 13.5C36.3 13 35.8 12.5 35 12.5H29Z"/>
</svg>
